<mxfile host="app.diagrams.net" modified="2021-05-08T10:37:23.846Z" agent="5.0 (Windows NT 10.0; Win64; x64) AppleWebKit/537.36 (KHTML, like Gecko) Chrome/90.0.4430.93 Safari/537.36" etag="XjxV4tKNIdnq2GUnmz1v" version="14.6.10" type="github">
  <diagram id="-Sga0ozJhyP76B9JZf9_" name="Page-1">
    <mxGraphModel dx="868" dy="450" grid="1" gridSize="10" guides="1" tooltips="1" connect="1" arrows="0" fold="1" page="1" pageScale="1" pageWidth="827" pageHeight="1169" math="0" shadow="0">
      <root>
        <mxCell id="0" />
        <mxCell id="1" parent="0" />
        <mxCell id="fkYpoD83vOkEe1sv--HM-22" style="edgeStyle=orthogonalEdgeStyle;rounded=0;orthogonalLoop=1;jettySize=auto;html=1;exitX=0.5;exitY=1;exitDx=0;exitDy=0;entryX=0.5;entryY=0;entryDx=0;entryDy=0;dashed=1;" parent="1" source="fkYpoD83vOkEe1sv--HM-1" target="fkYpoD83vOkEe1sv--HM-8" edge="1">
          <mxGeometry relative="1" as="geometry" />
        </mxCell>
        <mxCell id="fkYpoD83vOkEe1sv--HM-1" value="文字NFT" style="verticalLabelPosition=middle;verticalAlign=middle;html=1;shape=process;whiteSpace=wrap;rounded=0;size=0.14;arcSize=6;labelPosition=center;align=center;" parent="1" vertex="1">
          <mxGeometry x="200" y="190" width="100" height="60" as="geometry" />
        </mxCell>
        <mxCell id="fkYpoD83vOkEe1sv--HM-19" style="edgeStyle=none;rounded=0;orthogonalLoop=1;jettySize=auto;html=1;exitX=0.5;exitY=1;exitDx=0;exitDy=0;exitPerimeter=0;entryX=0.5;entryY=0;entryDx=0;entryDy=0;entryPerimeter=0;dashed=1;" parent="1" source="fkYpoD83vOkEe1sv--HM-3" target="fkYpoD83vOkEe1sv--HM-6" edge="1">
          <mxGeometry relative="1" as="geometry" />
        </mxCell>
        <mxCell id="fkYpoD83vOkEe1sv--HM-3" value="开始" style="strokeWidth=2;html=1;shape=mxgraph.flowchart.start_1;whiteSpace=wrap;" parent="1" vertex="1">
          <mxGeometry x="275" y="10" width="100" height="60" as="geometry" />
        </mxCell>
        <mxCell id="fkYpoD83vOkEe1sv--HM-23" style="edgeStyle=orthogonalEdgeStyle;rounded=0;orthogonalLoop=1;jettySize=auto;html=1;exitX=0.5;exitY=1;exitDx=0;exitDy=0;entryX=0.5;entryY=0;entryDx=0;entryDy=0;dashed=1;" parent="1" source="fkYpoD83vOkEe1sv--HM-4" target="fkYpoD83vOkEe1sv--HM-8" edge="1">
          <mxGeometry relative="1" as="geometry" />
        </mxCell>
        <mxCell id="fkYpoD83vOkEe1sv--HM-4" value="视频NFT" style="verticalLabelPosition=middle;verticalAlign=middle;html=1;shape=process;whiteSpace=wrap;rounded=0;size=0.14;arcSize=6;labelPosition=center;align=center;" parent="1" vertex="1">
          <mxGeometry x="350" y="190" width="100" height="60" as="geometry" />
        </mxCell>
        <mxCell id="fkYpoD83vOkEe1sv--HM-20" style="edgeStyle=orthogonalEdgeStyle;rounded=0;orthogonalLoop=1;jettySize=auto;html=1;exitX=0.5;exitY=1;exitDx=0;exitDy=0;exitPerimeter=0;entryX=0.5;entryY=0;entryDx=0;entryDy=0;dashed=1;" parent="1" source="fkYpoD83vOkEe1sv--HM-6" target="fkYpoD83vOkEe1sv--HM-1" edge="1">
          <mxGeometry relative="1" as="geometry" />
        </mxCell>
        <mxCell id="fkYpoD83vOkEe1sv--HM-21" style="edgeStyle=orthogonalEdgeStyle;rounded=0;orthogonalLoop=1;jettySize=auto;html=1;exitX=0.5;exitY=1;exitDx=0;exitDy=0;exitPerimeter=0;entryX=0.5;entryY=0;entryDx=0;entryDy=0;dashed=1;" parent="1" source="fkYpoD83vOkEe1sv--HM-6" target="fkYpoD83vOkEe1sv--HM-4" edge="1">
          <mxGeometry relative="1" as="geometry" />
        </mxCell>
        <mxCell id="fkYpoD83vOkEe1sv--HM-6" value="" style="verticalLabelPosition=bottom;verticalAlign=top;html=1;shape=mxgraph.flowchart.parallel_mode;pointerEvents=1;rounded=0;" parent="1" vertex="1">
          <mxGeometry x="200" y="110" width="250" height="40" as="geometry" />
        </mxCell>
        <mxCell id="fkYpoD83vOkEe1sv--HM-24" style="edgeStyle=orthogonalEdgeStyle;rounded=0;orthogonalLoop=1;jettySize=auto;html=1;exitX=0.5;exitY=1;exitDx=0;exitDy=0;dashed=1;" parent="1" source="fkYpoD83vOkEe1sv--HM-8" target="fkYpoD83vOkEe1sv--HM-10" edge="1">
          <mxGeometry relative="1" as="geometry" />
        </mxCell>
        <mxCell id="fkYpoD83vOkEe1sv--HM-8" value="编辑NFT" style="verticalLabelPosition=middle;verticalAlign=middle;html=1;shape=process;whiteSpace=wrap;rounded=0;size=0.14;arcSize=6;labelPosition=center;align=center;" parent="1" vertex="1">
          <mxGeometry x="275" y="310" width="100" height="60" as="geometry" />
        </mxCell>
        <mxCell id="fkYpoD83vOkEe1sv--HM-25" style="edgeStyle=orthogonalEdgeStyle;rounded=0;orthogonalLoop=1;jettySize=auto;html=1;exitX=0.5;exitY=1;exitDx=0;exitDy=0;dashed=1;entryX=0.5;entryY=0;entryDx=0;entryDy=0;entryPerimeter=0;" parent="1" source="fkYpoD83vOkEe1sv--HM-10" target="fkYpoD83vOkEe1sv--HM-26" edge="1">
          <mxGeometry relative="1" as="geometry">
            <mxPoint x="325" y="540" as="targetPoint" />
          </mxGeometry>
        </mxCell>
        <mxCell id="fkYpoD83vOkEe1sv--HM-10" value="宣发NFT" style="verticalLabelPosition=middle;verticalAlign=middle;html=1;shape=process;whiteSpace=wrap;rounded=0;size=0.14;arcSize=6;labelPosition=center;align=center;" parent="1" vertex="1">
          <mxGeometry x="275" y="430" width="100" height="60" as="geometry" />
        </mxCell>
        <mxCell id="fkYpoD83vOkEe1sv--HM-15" value="&lt;br&gt;&lt;div&gt;1. 每种资讯类型定义一个NFT&lt;/div&gt;&lt;div&gt;2. 可自定义积分规则，比如文章基本10分，&lt;/div&gt;&lt;div&gt;字数超过多少多少分等&lt;/div&gt;" style="strokeWidth=2;html=1;shape=mxgraph.flowchart.annotation_2;align=left;labelPosition=right;pointerEvents=1;rounded=0;dashed=1;" parent="1" vertex="1">
          <mxGeometry x="450" y="160" width="60" height="100" as="geometry" />
        </mxCell>
        <mxCell id="fkYpoD83vOkEe1sv--HM-17" value="&lt;br&gt;&lt;div&gt;1. 编辑审核定义一个NFT&lt;/div&gt;&lt;div&gt;2. 可自定义积分规则，比如文章文章编辑10分，&lt;/div&gt;&lt;div&gt;视频编辑20分，可以有更多更复杂的规则&lt;/div&gt;" style="strokeWidth=2;html=1;shape=mxgraph.flowchart.annotation_2;align=left;labelPosition=right;pointerEvents=1;rounded=0;dashed=1;" parent="1" vertex="1">
          <mxGeometry x="375" y="300" width="60" height="100" as="geometry" />
        </mxCell>
        <mxCell id="fkYpoD83vOkEe1sv--HM-18" value="&lt;br&gt;&lt;div&gt;1. 宣发定义一个NFT&lt;/div&gt;&lt;div&gt;2. 可自定义积分规则，比如一个平台1分，&lt;/div&gt;&lt;div&gt;每个点击量1分等&lt;/div&gt;" style="strokeWidth=2;html=1;shape=mxgraph.flowchart.annotation_2;align=left;labelPosition=right;pointerEvents=1;rounded=0;dashed=1;" parent="1" vertex="1">
          <mxGeometry x="375" y="410" width="60" height="100" as="geometry" />
        </mxCell>
        <mxCell id="fkYpoD83vOkEe1sv--HM-26" value="结算" style="strokeWidth=2;html=1;shape=mxgraph.flowchart.terminator;whiteSpace=wrap;rounded=0;" parent="1" vertex="1">
          <mxGeometry x="275" y="580" width="100" height="60" as="geometry" />
        </mxCell>
        <mxCell id="fkYpoD83vOkEe1sv--HM-27" value="&lt;br&gt;&lt;div&gt;1. 结算时计算每个人的token，及每个token的价值&lt;/div&gt;&lt;div&gt;2. 结算也是个智能合约，定义结算规则，通过业务系统触发&lt;/div&gt;" style="strokeWidth=2;html=1;shape=mxgraph.flowchart.annotation_2;align=left;labelPosition=right;pointerEvents=1;rounded=0;dashed=1;" parent="1" vertex="1">
          <mxGeometry x="375" y="560" width="40" height="100" as="geometry" />
        </mxCell>
        <mxCell id="fkYpoD83vOkEe1sv--HM-28" value="注：&lt;br&gt;1. 账户统一，业务系统的账户和区块链账户一致，每个业务系统的账户对应一个ddn地址&lt;br&gt;2. 创作、编辑这些动作由业务系统触发，在发表、编辑那一刻调用智能合约，&lt;br&gt;调用NFT的safeMint接口（相当于decentraland的addItem接口），创作人、编辑人获得一个token&lt;br&gt;3. 宣发NFT，点击量等应该是由统计系统进行触发&lt;br&gt;4. 业务操作和逻辑由业务系统完成，存证、量化和统计由ddn及其智能合约完成&lt;br&gt;5. 如果有修改或出错，每个NFT可以定义一个修改接口，由于在区块链上，数据改变可追溯查证，&lt;br&gt;因而出错数据正常修改即可" style="text;html=1;align=left;verticalAlign=middle;resizable=0;points=[];autosize=1;strokeColor=none;" parent="1" vertex="1">
          <mxGeometry x="170" y="690" width="530" height="120" as="geometry" />
        </mxCell>
      </root>
    </mxGraphModel>
  </diagram>
</mxfile>
